<svg width="174" height="174" viewBox="0 0 174 174" fill="none" xmlns="http://www.w3.org/2000/svg">
<path d="M117.697 1.68116e-06C122.469 0.00014715 127.073 1.77486 130.63 4.98485C134.187 8.19485 136.447 12.6149 136.977 17.4H147.91C151.697 17.4001 155.346 18.837 158.132 21.4253C160.917 24.0136 162.637 27.5642 162.948 31.3722L163 32.625V58.725C163 65.9472 160.262 72.8958 155.346 78.1454C150.43 83.395 143.709 86.5476 136.563 86.9565L134.752 87.0087C131.877 96.0471 126.516 104.075 119.294 110.159C112.072 116.243 103.286 120.132 93.9584 121.374V134.85H109.074C116.23 134.852 123.115 137.616 128.316 142.576C133.517 147.536 136.641 154.315 137.046 161.524L137.098 163.125V167.475C137.097 169.053 136.53 170.578 135.501 171.766C134.472 172.955 133.051 173.727 131.501 173.939L130.631 174H44.3695C42.8052 174.002 41.2933 173.432 40.1137 172.395C38.9342 171.359 38.1669 169.926 37.9542 168.362L37.9025 167.475V163.125C37.9019 155.904 40.6393 148.957 45.5534 143.707C50.4675 138.458 57.1859 135.305 64.3309 134.894L65.9261 134.85H81.0158V121.374C71.6914 120.129 62.9091 116.239 55.6904 110.155C48.4717 104.071 43.1135 96.0446 40.2392 87.0087L40.0236 87C32.5913 87 25.4634 84.021 20.2079 78.7184C14.9525 73.4159 12 66.224 12 58.725V32.625C12 24.2208 18.7602 17.4 27.0897 17.4H38.0232C38.5536 12.6134 40.8144 8.19215 44.373 4.98195C47.9317 1.77176 52.5385 -0.00199338 57.3121 1.68116e-06H117.697ZM109.074 147.9H65.9261C62.5194 147.898 59.2124 149.06 56.5431 151.195C53.8738 153.331 51.9993 156.315 51.2245 159.662L50.983 160.95H124C123.514 157.555 121.905 154.425 119.436 152.067C116.966 149.71 113.78 148.263 110.393 147.961L109.074 147.9ZM117.697 13.05H57.3035C55.5883 13.05 53.9434 13.7375 52.7306 14.9611C51.5178 16.1848 50.8365 17.8445 50.8365 19.575V71.7663C50.9841 81.4779 54.9113 90.7413 61.7702 97.5564C68.6291 104.371 77.8693 108.191 87.4957 108.191C97.1221 108.191 106.362 104.371 113.221 97.5564C120.08 90.7413 124.007 81.4779 124.155 71.7663V19.575C124.155 17.8445 123.474 16.1848 122.261 14.9611C121.048 13.7375 119.412 13.05 117.697 13.05ZM147.902 30.45H137.089V73.8021C140.461 73.3185 143.573 71.6978 145.916 69.2036C148.26 66.7094 149.698 63.4885 149.997 60.0648L150.057 58.725V32.625C150.057 32.135 149.892 31.6596 149.59 31.2759C149.288 30.8922 148.866 30.6226 148.393 30.5109L147.902 30.45ZM37.9025 30.45H27.0897C26.5179 30.45 25.9696 30.6792 25.5654 31.087C25.1611 31.4949 24.934 32.0482 24.934 32.625V58.725C24.9335 62.394 26.2462 65.9398 28.6305 68.71C31.0149 71.4802 34.3105 73.2884 37.9111 73.8021L37.9025 30.45Z" fill="black"/>
</svg>
