<svg width="176" height="177" viewBox="0 0 176 177" fill="none" xmlns="http://www.w3.org/2000/svg">
<path d="M116.767 0.333315C121.634 0.333462 126.33 2.12858 129.958 5.37546C133.585 8.62235 135.89 13.0932 136.431 17.9333H147.581C151.443 17.9335 155.164 19.3868 158.006 22.0049C160.847 24.623 162.6 28.2144 162.918 32.0661L162.971 33.3333V59.7333C162.971 67.0385 160.178 74.067 155.165 79.3769C150.151 84.6869 143.297 87.8757 136.008 88.2893L134.162 88.3421C131.229 97.4844 125.762 105.605 118.396 111.759C111.031 117.913 102.07 121.846 92.5574 123.102V136.733H107.973C115.272 136.735 122.293 139.531 127.598 144.548C132.902 149.565 136.088 156.422 136.501 163.714L136.554 165.333V169.733C136.553 171.33 135.975 172.872 134.925 174.074C133.876 175.276 132.427 176.057 130.846 176.272L129.958 176.333H41.9833C40.388 176.335 38.846 175.759 37.643 174.71C36.44 173.662 35.6575 172.212 35.4406 170.631L35.3878 169.733V165.333C35.3872 158.03 38.179 151.002 43.1907 145.693C48.2025 140.383 55.0544 137.193 62.3413 136.777L63.9682 136.733H79.3576V123.102C69.8481 121.843 60.8912 117.908 53.5291 111.754C46.167 105.601 40.7024 97.4819 37.771 88.3421L37.5511 88.3333C29.9711 88.3333 22.7016 85.3201 17.3417 79.9566C11.9818 74.593 8.9707 67.3185 8.9707 59.7333V33.3333C8.9707 24.8325 15.8652 17.9333 24.3601 17.9333H35.5109C36.0518 13.0917 38.3575 8.61962 41.9869 5.37253C45.6163 2.12544 50.3146 0.331297 55.183 0.333315H116.767ZM147.581 31.1333H136.554V74.9837C139.992 74.4927 143.162 72.8526 145.551 70.3299C147.939 67.8072 149.405 64.5503 149.709 61.0885L149.771 59.7333V33.3333C149.77 32.8377 149.602 32.3568 149.294 31.9687C148.986 31.5806 148.556 31.3079 148.074 31.1949L147.581 31.1333ZM35.3878 31.1333H24.3601C23.7771 31.1333 23.2179 31.3651 22.8056 31.7777C22.3933 32.1903 22.1617 32.7498 22.1617 33.3333V59.7333C22.1612 63.4445 23.4999 67.031 25.9317 69.8331C28.3634 72.6351 31.7245 74.4641 35.3966 74.9837L35.3878 31.1333Z" fill="black"/>
</svg>
