<svg width="30" height="23" viewBox="0 0 30 23" fill="none" xmlns="http://www.w3.org/2000/svg">
<path d="M28.1914 7.79051V15.7905V7.79051ZM2.19141 7.79051L15.1914 1.12384L28.1914 7.79051L15.1914 14.4572L2.19141 7.79051Z" fill="black"/>
<path d="M7.39141 10.4572V17.1238C7.39141 19.7905 9.99141 21.1238 15.1914 21.1238C20.3914 21.1238 22.9914 19.7905 22.9914 17.1238V10.4572" fill="black"/>
<path d="M28.1914 7.79051V15.7905M28.1914 7.79051L15.1914 1.12384L2.19141 7.79051L15.1914 14.4572L28.1914 7.79051ZM7.39141 10.4572V17.1238C7.39141 19.7905 9.9914 21.1238 15.1914 21.1238C20.3914 21.1238 22.9914 19.7905 22.9914 17.1238V10.4572" stroke="black" stroke-width="2"/>
</svg>
