<svg width="18" height="18" viewBox="0 0 18 18" fill="none" xmlns="http://www.w3.org/2000/svg">
<path d="M8.69971 15.9502C12.7038 15.9502 15.9497 12.7043 15.9497 8.7002C15.9497 4.69613 12.7038 1.4502 8.69971 1.4502C4.69564 1.4502 1.44971 4.69613 1.44971 8.7002C1.44971 12.7043 4.69564 15.9502 8.69971 15.9502Z" stroke="#515151" stroke-width="1.45" stroke-linecap="round" stroke-linejoin="round"/>
<path d="M6.58984 6.52453C6.76029 6.03999 7.09673 5.63141 7.53956 5.37116C7.98239 5.1109 8.50304 5.01576 9.0093 5.1026C9.51555 5.18944 9.97474 5.45264 10.3055 5.84559C10.6363 6.23854 10.8174 6.73589 10.8166 7.24953C10.8166 8.69953 8.64159 9.42453 8.64159 9.42453" stroke="#515151" stroke-width="1.45" stroke-linecap="round" stroke-linejoin="round"/>
<path d="M8.69971 12.3252H8.70771" stroke="#515151" stroke-width="1.45" stroke-linecap="round" stroke-linejoin="round"/>
</svg>
