<svg width="14" height="14" viewBox="0 0 14 14" fill="none" xmlns="http://www.w3.org/2000/svg">
<path d="M11.6668 5.83329C11.6668 8.74588 8.43575 11.7792 7.35075 12.716C7.24967 12.792 7.12663 12.8331 7.00016 12.8331C6.8737 12.8331 6.75066 12.792 6.64958 12.716C5.56458 11.7792 2.3335 8.74588 2.3335 5.83329C2.3335 4.59562 2.82516 3.40863 3.70033 2.53346C4.5755 1.65829 5.76249 1.16663 7.00016 1.16663C8.23784 1.16663 9.42482 1.65829 10.3 2.53346C11.1752 3.40863 11.6668 4.59562 11.6668 5.83329Z" stroke="#10B981" stroke-width="1.16667" stroke-linecap="round" stroke-linejoin="round"/>
<path d="M7 7.58337C7.9665 7.58337 8.75 6.79987 8.75 5.83337C8.75 4.86688 7.9665 4.08337 7 4.08337C6.0335 4.08337 5.25 4.86688 5.25 5.83337C5.25 6.79987 6.0335 7.58337 7 7.58337Z" stroke="#10B981" stroke-width="1.16667" stroke-linecap="round" stroke-linejoin="round"/>
</svg>
