<svg width="32" height="32" viewBox="0 0 32 32" fill="none" xmlns="http://www.w3.org/2000/svg">
<path d="M29.3332 22.6667C29.3332 23.3739 29.0522 24.0522 28.5521 24.5523C28.052 25.0524 27.3737 25.3333 26.6665 25.3333H9.10384C8.39665 25.3335 7.71848 25.6145 7.2185 26.1147L4.2825 29.0507C4.15011 29.183 3.98144 29.2732 3.79782 29.3097C3.6142 29.3462 3.42388 29.3275 3.25091 29.2558C3.07795 29.1842 2.93011 29.0629 2.82608 28.9072C2.72206 28.7516 2.66653 28.5685 2.6665 28.3813V6.66667C2.6665 5.95942 2.94746 5.28115 3.44755 4.78105C3.94765 4.28095 4.62593 4 5.33317 4H26.6665C27.3737 4 28.052 4.28095 28.5521 4.78105C29.0522 5.28115 29.3332 5.95942 29.3332 6.66667V22.6667Z" stroke="white" stroke-width="2.66667" stroke-linecap="round" stroke-linejoin="round"/>
</svg>
