<svg width="22" height="22" viewBox="0 0 22 22" fill="none" xmlns="http://www.w3.org/2000/svg">
<path d="M13.3346 16H8.88989" stroke="#64748B" stroke-width="1.77786" stroke-linecap="round" stroke-linejoin="round"/>
<path d="M16.0013 12.4453H8.88989" stroke="#64748B" stroke-width="1.77786" stroke-linecap="round" stroke-linejoin="round"/>
<path d="M3.55625 19.557H17.7792C18.2507 19.557 18.7029 19.3696 19.0363 19.0362C19.3697 18.7028 19.557 18.2506 19.557 17.7791V3.55618C19.557 3.08467 19.3697 2.63246 19.0363 2.29904C18.7029 1.96563 18.2507 1.77832 17.7792 1.77832H7.11197C6.64045 1.77832 6.18825 1.96563 5.85483 2.29904C5.52142 2.63246 5.33411 3.08467 5.33411 3.55618V17.7791C5.33411 18.2506 5.1468 18.7028 4.81338 19.0362C4.47997 19.3696 4.02776 19.557 3.55625 19.557ZM3.55625 19.557C3.08473 19.557 2.63252 19.3696 2.29911 19.0362C1.96569 18.7028 1.77838 18.2506 1.77838 17.7791V9.77871C1.77838 9.30719 1.96569 8.85498 2.29911 8.52157C2.63252 8.18815 3.08473 8.00084 3.55625 8.00084H5.33411" stroke="#64748B" stroke-width="1.77786" stroke-linecap="round" stroke-linejoin="round"/>
<path d="M15.1124 5.33398H9.77882C9.28788 5.33398 8.88989 5.73197 8.88989 6.22292V8.00078C8.88989 8.49172 9.28788 8.88971 9.77882 8.88971H15.1124C15.6034 8.88971 16.0013 8.49172 16.0013 8.00078V6.22292C16.0013 5.73197 15.6034 5.33398 15.1124 5.33398Z" stroke="#64748B" stroke-width="1.77786" stroke-linecap="round" stroke-linejoin="round"/>
</svg>
