<svg width="22" height="22" viewBox="0 0 22 22" fill="none" xmlns="http://www.w3.org/2000/svg">
<path d="M13.3337 18.6674V11.5559C13.3337 11.3202 13.24 11.0941 13.0733 10.9274C12.9066 10.7606 12.6805 10.667 12.4448 10.667H8.88902C8.65326 10.667 8.42716 10.7606 8.26045 10.9274C8.09375 11.0941 8.00009 11.3202 8.00009 11.5559V18.6674" stroke="#2563EB" stroke-width="1.77786" stroke-linecap="round" stroke-linejoin="round"/>
<path d="M2.66675 8.8902C2.66669 8.63158 2.72305 8.37606 2.8319 8.14147C2.94075 7.90687 3.09948 7.69885 3.297 7.53191L9.51952 2.19832C9.84042 1.92712 10.247 1.77832 10.6671 1.77832C11.0873 1.77832 11.4939 1.92712 11.8147 2.19832L18.0373 7.53191C18.2348 7.69885 18.3935 7.90687 18.5024 8.14147C18.6112 8.37606 18.6676 8.63158 18.6675 8.8902V16.8906C18.6675 17.3621 18.4802 17.8143 18.1468 18.1477C17.8134 18.4811 17.3612 18.6685 16.8897 18.6685H4.44461C3.97309 18.6685 3.52089 18.4811 3.18747 18.1477C2.85406 17.8143 2.66675 17.3621 2.66675 16.8906V8.8902Z" stroke="#2563EB" stroke-width="1.77786" stroke-linecap="round" stroke-linejoin="round"/>
</svg>
