<svg width="22" height="22" viewBox="0 0 22 22" fill="none" xmlns="http://www.w3.org/2000/svg">
<g clip-path="url(#clip0_284_148)">
<path d="M19.0406 9.70891C19.1998 9.63871 19.3348 9.52336 19.429 9.37716C19.5233 9.23096 19.5725 9.06033 19.5707 8.88641C19.5689 8.71249 19.5161 8.54292 19.4189 8.3987C19.3217 8.25448 19.1843 8.14195 19.0237 8.07505L11.4047 4.60466C11.1731 4.49901 10.9215 4.44434 10.6669 4.44434C10.4123 4.44434 10.1607 4.49901 9.92908 4.60466L2.31094 8.0715C2.15268 8.14081 2.01805 8.25474 1.92351 8.39935C1.82897 8.54396 1.77863 8.71299 1.77863 8.88576C1.77863 9.05853 1.82897 9.22755 1.92351 9.37217C2.01805 9.51678 2.15268 9.63071 2.31094 9.70002L9.92908 13.174C10.1607 13.2796 10.4123 13.3343 10.6669 13.3343C10.9215 13.3343 11.1731 13.2796 11.4047 13.174L19.0406 9.70891Z" stroke="#64748B" stroke-width="1.77786" stroke-linecap="round" stroke-linejoin="round"/>
<path d="M19.5563 8.88965V14.2232" stroke="#64748B" stroke-width="1.77786" stroke-linecap="round" stroke-linejoin="round"/>
<path d="M5.33325 11.1113V14.2226C5.33325 14.9299 5.89518 15.6082 6.89542 16.1083C7.89567 16.6084 9.25229 16.8894 10.6668 16.8894C12.0814 16.8894 13.438 16.6084 14.4383 16.1083C15.4385 15.6082 16.0004 14.9299 16.0004 14.2226V11.1113" stroke="#64748B" stroke-width="1.77786" stroke-linecap="round" stroke-linejoin="round"/>
</g>
<defs>
<clipPath id="clip0_284_148">
<rect width="21.3344" height="21.3344" fill="white"/>
</clipPath>
</defs>
</svg>
