<svg width="24" height="20" viewBox="0 0 24 20" fill="none" xmlns="http://www.w3.org/2000/svg">
<path d="M20.75 20H3.25C2.41986 20.0001 1.62117 19.6824 1.01777 19.1123C0.414367 18.5422 0.0519987 17.7628 0.00500013 16.934L1.69985e-08 16.75V2.25C-7.00219e-05 1.67987 0.216295 1.13098 0.605369 0.714247C0.994443 0.297514 1.52721 0.0440221 2.096 0.00500013L2.25 1.69987e-08H17.75C18.3201 -7.00219e-05 18.869 0.216295 19.2858 0.605369C19.7025 0.994443 19.956 1.52721 19.995 2.096L20 2.25V3H21.75C22.3201 2.99993 22.869 3.2163 23.2858 3.60537C23.7025 3.99444 23.956 4.52721 23.995 5.096L24 5.25V16.75C24.0001 17.5801 23.6824 18.3788 23.1123 18.9822C22.5422 19.5856 21.7628 19.948 20.934 19.995L20.75 20ZM3.25 18.5H20.75C21.1893 18.5 21.6126 18.3347 21.9357 18.037C22.2588 17.7392 22.4581 17.3309 22.494 16.893L22.5 16.75V5.25C22.5 5.06876 22.4344 4.89366 22.3152 4.75707C22.1961 4.62048 22.0316 4.53165 21.852 4.507L21.75 4.5H20V15.25C20 15.4312 19.9344 15.6063 19.8152 15.7429C19.6961 15.8795 19.5316 15.9684 19.352 15.993L19.25 16C19.0688 16 18.8937 15.9344 18.7571 15.8152C18.6205 15.6961 18.5316 15.5316 18.507 15.352L18.5 15.25V2.25C18.5 2.06876 18.4344 1.89366 18.3152 1.75707C18.1961 1.62048 18.0316 1.53165 17.852 1.507L17.75 1.5H2.25C2.06876 1.50001 1.89366 1.56564 1.75707 1.68477C1.62048 1.80389 1.53165 1.96845 1.507 2.148L1.5 2.25V16.75C1.50002 17.1892 1.66517 17.6123 1.96268 17.9354C2.26019 18.2585 2.6683 18.4579 3.106 18.494L3.25 18.5ZM8.246 9.004C8.936 9.004 9.496 9.564 9.496 10.254V13.75C9.496 14.44 8.936 15 8.246 15H4.75C4.06 15 3.5 14.44 3.5 13.75V10.254C3.5 9.564 4.06 9.004 4.75 9.004H8.246ZM12.25 13.5H15.746C15.936 13.5001 16.1189 13.5722 16.2578 13.702C16.3966 13.8317 16.4811 14.0093 16.494 14.1989C16.507 14.3885 16.4475 14.5759 16.3276 14.7233C16.2077 14.8707 16.0362 14.9671 15.848 14.993L15.746 15H12.25C12.06 14.9999 11.8771 14.9278 11.7382 14.798C11.5994 14.6683 11.5149 14.4907 11.502 14.3011C11.489 14.1115 11.5485 13.9241 11.6684 13.7767C11.7883 13.6293 11.9598 13.5329 12.148 13.507L12.25 13.5ZM7.997 10.504H5V13.5H7.997V10.504ZM12.25 9.004H15.746C15.936 9.00406 16.1189 9.07624 16.2578 9.20597C16.3966 9.3357 16.4811 9.5133 16.494 9.70288C16.507 9.89246 16.4475 10.0799 16.3276 10.2273C16.2077 10.3747 16.0362 10.4711 15.848 10.497L15.746 10.504H12.25C12.0586 10.5059 11.8737 10.4347 11.7332 10.3047C11.5927 10.1748 11.5072 9.99607 11.4941 9.80512C11.4811 9.61418 11.5415 9.42548 11.6631 9.27766C11.7847 9.12984 11.9581 9.03408 12.148 9.01L12.25 9.004ZM4.246 4.497H15.746C15.936 4.49706 16.1189 4.56924 16.2578 4.69897C16.3966 4.8287 16.4811 5.0063 16.494 5.19588C16.507 5.38546 16.4475 5.57289 16.3276 5.7203C16.2077 5.86771 16.0362 5.9641 15.848 5.99L15.746 5.997H4.246C4.05606 5.99669 3.87332 5.92433 3.73466 5.79452C3.596 5.66471 3.51175 5.48713 3.49893 5.29762C3.48611 5.10812 3.54567 4.92081 3.66559 4.77351C3.7855 4.6262 3.95683 4.52989 4.145 4.504L4.246 4.497Z" fill="black"/>
</svg>
