<svg width="17" height="19" viewBox="0 0 17 19" fill="none" xmlns="http://www.w3.org/2000/svg">
<path d="M9.77516 16.6667C9.62865 16.9192 9.41836 17.1289 9.16535 17.2746C8.91234 17.4204 8.62548 17.4971 8.3335 17.4971C8.04151 17.4971 7.75465 17.4204 7.50164 17.2746C7.24863 17.1289 7.03834 16.9192 6.89183 16.6667M13.3335 5.83334C13.3335 4.50726 12.8067 3.23549 11.869 2.29781C10.9313 1.36013 9.65958 0.833344 8.3335 0.833344C7.00741 0.833344 5.73564 1.36013 4.79796 2.29781C3.86028 3.23549 3.3335 4.50726 3.3335 5.83334C3.3335 11.6667 0.833496 13.3333 0.833496 13.3333H15.8335C15.8335 13.3333 13.3335 11.6667 13.3335 5.83334Z" stroke="black" stroke-width="1.66667" stroke-linecap="round" stroke-linejoin="round"/>
</svg>
