<svg width="22" height="22" viewBox="0 0 22 22" fill="none" xmlns="http://www.w3.org/2000/svg">
<path d="M11 9C13.2091 9 15 7.20914 15 5C15 2.79086 13.2091 1 11 1C8.79086 1 7 2.79086 7 5C7 7.20914 8.79086 9 11 9Z" fill="black"/>
<path d="M16.4027 14H5.59719C4.1344 14 2.54747 14.228 1.73446 15.444C1.32479 16.0568 1 16.892 1 18C1 21 2.90383 21 8.14193 21H13.8562C19.5705 21 21 21 21 18C21 16.8913 20.6747 16.0558 20.2646 15.443C19.4513 14.2277 17.865 14 16.4027 14Z" fill="black"/>
<path d="M11 9C13.2091 9 15 7.20914 15 5C15 2.79086 13.2091 1 11 1C8.79086 1 7 2.79086 7 5C7 7.20914 8.79086 9 11 9Z" stroke="black" stroke-width="2"/>
<path d="M16.4027 14H5.59719C4.1344 14 2.54747 14.228 1.73446 15.444C1.32479 16.0568 1 16.892 1 18C1 21 2.90383 21 8.14193 21H13.8562C19.5705 21 21 21 21 18C21 16.8913 20.6747 16.0558 20.2646 15.443C19.4513 14.2277 17.865 14 16.4027 14Z" stroke="black" stroke-width="2"/>
</svg>
