<svg width="28" height="28" viewBox="0 0 28 28" fill="none" xmlns="http://www.w3.org/2000/svg">
<circle cx="14" cy="14" r="14" fill="#2563EB"/>
<path d="M16.8176 20.5242V19.0217C16.8176 18.2247 16.501 17.4603 15.9375 16.8968C15.3739 16.3332 14.6095 16.0166 13.8125 16.0166H9.3049C8.5079 16.0166 7.74354 16.3332 7.17998 16.8968C6.61641 17.4603 6.2998 18.2247 6.2998 19.0217V20.5242" stroke="white" stroke-width="1.50255" stroke-linecap="round" stroke-linejoin="round"/>
<path d="M11.5593 13.0102C13.219 13.0102 14.5644 11.6648 14.5644 10.0051C14.5644 8.34543 13.219 7 11.5593 7C9.89962 7 8.5542 8.34543 8.5542 10.0051C8.5542 11.6648 9.89962 13.0102 11.5593 13.0102Z" stroke="white" stroke-width="1.50255" stroke-linecap="round" stroke-linejoin="round"/>
<path d="M22.3999 20.3409V19.1449C22.3999 18.5105 22.1479 17.9021 21.6993 17.4535C21.2507 17.0049 20.6423 16.7529 20.0079 16.7529H16.4199" stroke="white" stroke-width="1.196" stroke-linecap="round" stroke-linejoin="round"/>
<path d="M18.8585 14.3602C20.1796 14.3602 21.2505 13.2892 21.2505 11.9682C21.2505 10.6471 20.1796 9.57617 18.8585 9.57617C17.5375 9.57617 16.4666 10.6471 16.4666 11.9682C16.4666 13.2892 17.5375 14.3602 18.8585 14.3602Z" stroke="white" stroke-width="1.196" stroke-linecap="round" stroke-linejoin="round"/>
</svg>
