<svg width="25" height="25" viewBox="0 0 25 25" fill="none" xmlns="http://www.w3.org/2000/svg">
<path d="M10.0739 4.3089C10.1313 3.70509 10.4118 3.14436 10.8605 2.73627C11.3092 2.32818 11.8939 2.10205 12.5005 2.10205C13.107 2.10205 13.6918 2.32818 14.1405 2.73627C14.5892 3.14436 14.8696 3.70509 14.927 4.3089C14.9615 4.69895 15.0895 5.07496 15.3001 5.40509C15.5107 5.73521 15.7977 6.00974 16.1369 6.20544C16.4761 6.40113 16.8574 6.51223 17.2486 6.52934C17.6398 6.54644 18.0294 6.46904 18.3843 6.30369C18.9355 6.05346 19.56 6.01725 20.1364 6.20211C20.7128 6.38697 21.1998 6.77968 21.5026 7.3038C21.8054 7.82792 21.9023 8.44595 21.7746 9.03762C21.6468 9.62928 21.3035 10.1522 20.8114 10.5047C20.491 10.7296 20.2294 11.0283 20.0488 11.3756C19.8682 11.7229 19.774 12.1086 19.774 12.5C19.774 12.8915 19.8682 13.2772 20.0488 13.6245C20.2294 13.9718 20.491 14.2705 20.8114 14.4954C21.3035 14.8478 21.6468 15.3708 21.7746 15.9625C21.9023 16.5541 21.8054 17.1722 21.5026 17.6963C21.1998 18.2204 20.7128 18.6131 20.1364 18.798C19.56 18.9828 18.9355 18.9466 18.3843 18.6964C18.0294 18.531 17.6398 18.4536 17.2486 18.4708C16.8574 18.4879 16.4761 18.599 16.1369 18.7946C15.7977 18.9903 15.5107 19.2649 15.3001 19.595C15.0895 19.9251 14.9615 20.3011 14.927 20.6912C14.8696 21.295 14.5892 21.8557 14.1405 22.2638C13.6918 22.6719 13.107 22.898 12.5005 22.898C11.8939 22.898 11.3092 22.6719 10.8605 22.2638C10.4118 21.8557 10.1313 21.295 10.0739 20.6912C10.0395 20.301 9.91151 19.9248 9.70085 19.5946C9.49019 19.2644 9.20305 18.9897 8.86373 18.794C8.52442 18.5983 8.14294 18.4872 7.7516 18.4703C7.36025 18.4533 6.97058 18.5308 6.61558 18.6964C6.06442 18.9466 5.43987 18.9828 4.86349 18.798C4.28711 18.6131 3.80013 18.2204 3.49733 17.6963C3.19453 17.1722 3.09757 16.5541 3.22533 15.9625C3.35308 15.3708 3.69641 14.8478 4.18849 14.4954C4.50893 14.2705 4.7705 13.9718 4.95108 13.6245C5.13167 13.2772 5.22594 12.8915 5.22594 12.5C5.22594 12.1086 5.13167 11.7229 4.95108 11.3756C4.7705 11.0283 4.50893 10.7296 4.18849 10.5047C3.6971 10.1521 3.35438 9.62931 3.22693 9.03805C3.09948 8.44678 3.19642 7.82925 3.49889 7.30547C3.80137 6.78169 4.28778 6.38908 4.86359 6.20394C5.4394 6.0188 6.06348 6.05435 6.61453 6.30369C6.96949 6.46904 7.35906 6.54644 7.75026 6.52934C8.14147 6.51223 8.5228 6.40113 8.86197 6.20544C9.20114 6.00974 9.48817 5.73521 9.69877 5.40509C9.90937 5.07496 10.0373 4.69895 10.0718 4.3089" stroke="black" stroke-width="2.08333" stroke-linecap="round" stroke-linejoin="round"/>
<path d="M12.5 15.625C14.2259 15.625 15.625 14.2259 15.625 12.5C15.625 10.7741 14.2259 9.375 12.5 9.375C10.7741 9.375 9.375 10.7741 9.375 12.5C9.375 14.2259 10.7741 15.625 12.5 15.625Z" stroke="black" stroke-width="2.08333" stroke-linecap="round" stroke-linejoin="round"/>
</svg>
