<svg width="13" height="13" viewBox="0 0 13 13" fill="none" xmlns="http://www.w3.org/2000/svg">
<path d="M0.292893 10.7929C-0.0976311 11.1834 -0.0976311 11.8166 0.292893 12.2071C0.683417 12.5976 1.31658 12.5976 1.70711 12.2071L1 11.5L0.292893 10.7929ZM12.5 1C12.5 0.447715 12.0523 0 11.5 0H2.5C1.94772 0 1.5 0.447715 1.5 1C1.5 1.55228 1.94772 2 2.5 2H10.5V10C10.5 10.5523 10.9477 11 11.5 11C12.0523 11 12.5 10.5523 12.5 10V1ZM1 11.5L1.70711 12.2071L12.2071 1.70711L11.5 1L10.7929 0.292893L0.292893 10.7929L1 11.5Z" fill="#2563EB"/>
</svg>
