<svg width="12" height="12" viewBox="0 0 12 12" fill="none" xmlns="http://www.w3.org/2000/svg">
<path d="M11.7863 4.083C11.9951 4.31502 11.9951 4.66304 11.7631 4.87185L4.89548 11.7395C4.68666 11.9715 4.33864 11.9715 4.12983 11.7395L0.23199 7.84163C-2.41958e-05 7.63282 -2.41958e-05 7.2848 0.23199 7.05279L1.13685 6.14793C1.36886 5.91592 1.71688 5.91592 1.92569 6.14793L4.52425 8.72329L10.0694 3.17815C10.2782 2.94613 10.6494 2.94613 10.8582 3.17815L11.7863 4.083ZM4.24584 6.54235L1.64728 3.94379C1.50807 3.80459 1.50807 3.57257 1.64728 3.41016L2.71454 2.3661C2.85375 2.22689 3.08577 2.22689 3.22497 2.3661L4.52425 3.66538L8.02767 0.138761C8.16688 -0.000447471 8.39889 -0.000447471 8.5613 0.138761L9.60537 1.18283C9.74457 1.34524 9.74457 1.57725 9.60537 1.71646L4.77947 6.54235C4.64026 6.70476 4.38505 6.70476 4.24584 6.54235Z" fill="#2563EB"/>
</svg>
